{"title":"Star Wars:Episode III:Revenge of the Sith(2005)[DaScubaDude]","uid":14218271,"size":1405105947,"categoryP":"video","categoryS":"movies","magnet":"?xt=urn:btih:d35d407a5ebbe2d74f470c8eb5fee6c589636666&amp;dn=Star+Wars%3AEpisode+III%3ARevenge+of+the+Sith%282005%29%5BDaScubaDude%5D&amp;tr=udp%3A%2F%2Ftracker.leechers-paradise.org%3A6969&amp;tr=udp%3A%2F%2Fzer0day.ch%3A1337&amp;tr=udp%3A%2F%2Fopen.demonii.com%3A1337&amp;tr=udp%3A%2F%2Ftracker.coppersurfer.tk%3A6969&amp;tr=udp%3A%2F%2Fexodus.desync.com%3A6969","seeders":0,"leechers":0,"uploader":"dascuba","files":1,"time":1460012522,"description":"Star Wars: Episode III - Revenge of the Sith (2005)\r\nPG-13 | 2h 20min | Action, Adventure, Fantasy | 19 May 2005 (USA)\r\nDuring the near end of the clone wars, Darth Sidious has revealed himself and is ready to execute the last part of his plan to rule the Galaxy. Sidious is ready for his new apprentice, Lord... See full summary »\r\nDirector: George Lucas\r\nWriter: George Lucas\r\nStars: Hayden Christensen, Natalie Portman, Ewan McGregor\r\n\r\nGeneral\r\nComplete name                            : Star Wars IIIREVENGE_OF_THE_SITH_Title1.mp4\r\nFormat                                   : MPEG-4\r\nFormat profile                           : Base Media\r\nCodec ID                                 : isom\r\nFile size                                : 1.31 GiB\r\nDuration                                 : 2h 20mn\r\nOverall bit rate                         : 1 338 Kbps\r\nMovie name                               : REVENGE_OF_THE_SITH\r\nGenre                                    : Science_Fiction\r\nWriting application                      : Lavf54.6.100\r\n\r\nVideo\r\nID                                       : 1\r\nFormat                                   : AVC\r\nFormat/Info                              : Advanced Video Codec\r\nFormat profile                           :   \r\nFormat settings, CABAC                   : No\r\nFormat settings, ReFrames                : 6 frames\r\nCodec ID                                 : avc1\r\nCodec ID/Info                            : Advanced Video Coding\r\nDuration                                 : 2h 20mn\r\nBit rate                                 : 1 203 Kbps\r\nWidth                                    : 720 pixels\r\nHeight                                   : 404 pixels\r\nDisplay aspect ratio                     : 16:9\r\nFrame rate mode                          : Constant\r\nFrame rate                               : 29.970 fps\r\nColor space                              : YUV\r\nChroma subsampling                       : 4:2:0\r\nBit depth                                : 8 bits\r\nScan type                                : Progressive\r\nBits/(Pixel*Frame)                       : 0.138\r\nStream size                              : 1.18 GiB (90%)\r\n\r\nAudio\r\nID                                       : 2\r\nFormat                                   : AAC\r\nFormat/Info                              : Advanced Audio Codec\r\nFormat profile                           : LC\r\nCodec ID                                 : 40\r\nDuration                                 : 2h 20mn\r\nBit rate mode                            : Constant\r\nBit rate                                 : 128 Kbps\r\nChannel(s)                               : 2 channels\r\nChannel positions                        : Front: L R\r\nSampling rate                            : 44.1 KHz\r\nCompression mode                         : Lossy\r\nStream size                              : 128 MiB (10%)","torrent":{"xt":"urn:btih:d35d407a5ebbe2d74f470c8eb5fee6c589636666","amp;dn":"Star+Wars%3AEpisode+III%3ARevenge+of+the+Sith%282005%29%5BDaScubaDude%5D","amp;tr":["udp%3A%2F%2Ftracker.leechers-paradise.org%3A6969","udp%3A%2F%2Fzer0day.ch%3A1337","udp%3A%2F%2Fopen.demonii.com%3A1337","udp%3A%2F%2Ftracker.coppersurfer.tk%3A6969","udp%3A%2F%2Fexodus.desync.com%3A6969"],"infoHash":"d35d407a5ebbe2d74f470c8eb5fee6c589636666","infoHashBuffer":{"type":"Buffer","data":[211,93,64,122,94,187,226,215,79,71,12,142,181,254,230,197,137,99,102,102]},"announce":[],"urlList":[]}}